<?xml version="1.0" standalone="no"?><svg xmlns="http://www.w3.org/2000/svg" viewBox="0 0 1440 320"><path fill="#0099ff" fill-opacity="1" d="M0,0L13.3,16C26.7,32,53,64,80,74.7C106.7,85,133,75,160,69.3C186.7,64,213,64,240,58.7C266.7,53,293,43,320,53.3C346.7,64,373,96,400,117.3C426.7,139,453,149,480,133.3C506.7,117,533,75,560,48C586.7,21,613,11,640,26.7C666.7,43,693,85,720,90.7C746.7,96,773,64,800,58.7C826.7,53,853,75,880,112C906.7,149,933,203,960,224C986.7,245,1013,235,1040,208C1066.7,181,1093,139,1120,154.7C1146.7,171,1173,245,1200,240C1226.7,235,1253,149,1280,128C1306.7,107,1333,149,1360,154.7C1386.7,160,1413,128,1427,112L1440,96L1440,0L1426.7,0C1413.3,0,1387,0,1360,0C1333.3,0,1307,0,1280,0C1253.3,0,1227,0,1200,0C1173.3,0,1147,0,1120,0C1093.3,0,1067,0,1040,0C1013.3,0,987,0,960,0C933.3,0,907,0,880,0C853.3,0,827,0,800,0C773.3,0,747,0,720,0C693.3,0,667,0,640,0C613.3,0,587,0,560,0C533.3,0,507,0,480,0C453.3,0,427,0,400,0C373.3,0,347,0,320,0C293.3,0,267,0,240,0C213.3,0,187,0,160,0C133.3,0,107,0,80,0C53.3,0,27,0,13,0L0,0Z"></path></svg>